<svg width="1324" height="708" viewBox="0 0 1324 708" fill="none" xmlns="http://www.w3.org/2000/svg">
<g filter="url(#filter0_i)">
<path d="M502.8 214.731C496.748 187.495 357.548 5.92383 363.6 -96.9667C424.121 -151.438 502.8 -166.569 626.871 -181.7C750.941 -196.831 959.741 -169.595 1229.06 -166.569C1444.52 -164.148 1476.19 -155.473 1465.1 -151.438C1467.12 -133.281 1472.97 -86.0724 1480.23 -42.4953C1489.31 11.9762 1507.46 60.3953 1522.59 93.6834C1537.73 126.972 1534.7 260.124 1507.46 335.779C1480.23 411.434 1519.57 562.743 1507.46 614.189C1497.78 655.345 1465.1 687.826 1449.97 698.922C1192.75 599.058 956.715 774.577 808.436 677.739C776.662 662.608 714.627 589.979 714.627 589.979C678.314 543.073 592.07 485.576 558.783 446.235C525.496 406.894 536.088 287.36 502.8 214.731Z" fill="url(#paint0_linear)"/>
</g>
<g opacity="0.8" filter="url(#filter1_i)">
<path d="M1138.38 533.974C1189.19 505.312 1294.27 501.615 1340.45 503.35C1356.35 505.079 1388.51 505.288 1389.92 492.293C1391.69 476.049 1443.08 238.381 1446.67 127.005C1450.26 15.6297 1412 -67.1422 1305.12 -67.026C1195.29 -66.9067 1135.51 -59.9116 938.881 -59.6981C792.138 -59.5387 885.567 -65.4951 714.772 -113.651C543.978 -161.808 611.99 -108.391 526.396 -104.549C440.803 -100.707 297.402 -191.906 173.211 -172.537C73.8577 -157.042 15.8332 -143.596 0.501324 -124.444C7.47493 -113.475 23.6415 -78.3027 23.7027 -65.6344C135.331 83.7096 235.43 -9.19678 309.447 115.117C407.519 309.866 464.178 332.749 655.782 428.904C738.18 490.459 757.386 591.165 886.463 605.2C1015.54 619.235 1074.86 569.801 1138.38 533.974Z" fill="url(#paint1_linear)"/>
</g>
<path d="M1342.87 491.624L1342.86 491.622L1342.84 491.621C1320.11 490.728 1282.9 491.177 1245.1 495.428C1207.31 499.677 1168.86 507.73 1143.72 522.084C1135.37 526.847 1127.11 531.845 1118.75 536.9C1095.7 550.846 1071.94 565.219 1043.84 576.243C1005.58 591.25 959.308 600.036 895.957 592.959C832.687 585.891 796.474 557.259 765.976 522.668C756.522 511.945 747.632 500.669 738.652 489.278C733.125 482.267 727.564 475.212 721.816 468.216C706.744 449.874 690.428 431.991 670.2 416.549L670.164 416.522L670.124 416.501C663.304 413.005 656.659 409.606 650.179 406.292C567.354 363.929 511.719 335.473 466.014 296.444C416.753 254.379 379.009 200.011 331.264 102.628L331.247 102.594L331.226 102.563C309.531 71.3021 287.263 54.3768 264.209 43.6027C246.305 35.2354 227.922 30.5797 209.021 25.793C203.616 24.4241 198.168 23.0445 192.678 21.5643C167.968 14.903 142.306 6.19068 115.438 -12.7492C88.6253 -31.6507 60.5836 -60.7585 31.1028 -108.234C46.4814 -127.374 101.08 -169.105 198.29 -184.401C259.266 -193.995 324.86 -176.009 385.81 -156.046C395.351 -152.921 404.78 -149.747 414.059 -146.624C434.397 -139.778 454.014 -133.174 472.514 -127.86C499.453 -120.122 524.089 -115.097 545.22 -116.037C566.327 -116.977 578.032 -121.037 586.331 -125.873C590.315 -128.194 593.503 -130.688 596.545 -133.068L596.904 -133.349C600.061 -135.817 603.084 -138.147 606.747 -140.072C614.049 -143.911 623.969 -146.181 642.567 -144.462C661.175 -142.742 688.422 -137.033 730.345 -124.952C795.437 -106.195 821.532 -96.2575 837.514 -90.1712C842.119 -88.4174 845.884 -86.9834 849.501 -85.7503C865.692 -80.2304 878.856 -78.7598 950.362 -70.7716L950.551 -70.7506C1012.5 -63.8304 1066.39 -45.5294 1115.97 -28.6909C1123.73 -26.0559 1131.38 -23.4567 1138.95 -20.9426C1194.81 -2.37183 1245.73 11.571 1297.33 0.847475C1348.77 -9.84209 1387.56 -8.73236 1412.98 8.7992C1438.36 26.3075 1450.59 60.3284 1448.56 115.95C1446.53 171.584 1432.61 258.778 1418.95 334.121C1412.13 371.787 1405.37 406.481 1400.21 432.776C1399.54 436.19 1398.9 439.464 1398.28 442.585C1394.18 463.475 1391.42 477.508 1391.02 481.064C1390.68 484.08 1388.6 486.384 1385.26 488.121C1381.92 489.858 1377.41 490.981 1372.42 491.651C1362.43 492.988 1350.67 492.494 1342.87 491.624Z" stroke="url(#paint2_linear)" stroke-opacity="0.25"/>
<g opacity="0.8" filter="url(#filter2_i)">
<path d="M950.725 258.321C756.909 258.321 692.303 42.9624 645.644 -32.413C583.342 -133.058 674.358 -119.274 789.212 -179.575C932.779 -254.95 1029.69 -211.878 1201.97 -154.449C1374.25 -97.0205 1485.51 -114.967 1463.98 -32.413C1446.75 33.6302 1373.05 86.034 1338.36 103.981C1298.5 115.797 1184.02 258.321 950.725 258.321Z" fill="url(#paint3_linear)"/>
</g>
<path d="M641.547 -67.8149L641.534 -67.8364L641.519 -67.8564C631.454 -80.9482 628.26 -92.8133 630.806 -104.181C633.359 -115.579 641.705 -126.586 654.973 -137.894C680.044 -159.261 722.426 -181.49 775.465 -209.308C778.581 -210.943 781.734 -212.597 784.922 -214.271C856.615 -251.91 916.629 -259.968 980.234 -251.457C1034.13 -244.246 1090.59 -225.145 1158.94 -202.022C1171.31 -197.835 1184.08 -193.517 1197.29 -189.114C1240.38 -174.749 1279.66 -165.098 1313.99 -157.413C1324.29 -155.107 1334.15 -152.978 1343.52 -150.952C1365.4 -146.226 1384.68 -142.061 1401 -137.51C1424.33 -131.006 1441.47 -123.743 1451.46 -113.03C1461.41 -102.37 1464.33 -88.209 1458.97 -67.6779C1450.39 -34.7852 1427.74 -5.2513 1402.85 18.3184C1378.03 41.8346 1351.03 59.3717 1333.71 68.3422C1327.34 68.3732 1320.18 70.8235 1312.09 75.0302C1303.95 79.2669 1294.83 85.3125 1284.59 92.5493C1279.1 96.4324 1273.28 100.66 1267.12 105.139C1250.29 117.368 1230.88 131.475 1208.4 145.589C1146.99 184.14 1062.73 222.682 946.203 222.682C849.517 222.682 785.043 168.978 738.883 105.786C715.801 74.188 697.309 40.2301 681.666 9.44794C677.242 0.742737 673.045 -7.71204 669.035 -15.7886C658.876 -36.2516 649.922 -54.2867 641.547 -67.8149Z" stroke="url(#paint4_linear)" stroke-opacity="0.15"/>
<defs>
<filter id="filter0_i" x="363.408" y="-208.246" width="1168.25" height="916.246" filterUnits="userSpaceOnUse" color-interpolation-filters="sRGB">
<feFlood flood-opacity="0" result="BackgroundImageFix"/>
<feBlend mode="normal" in="SourceGraphic" in2="BackgroundImageFix" result="shape"/>
<feColorMatrix in="SourceAlpha" type="matrix" values="0 0 0 0 0 0 0 0 0 0 0 0 0 0 0 0 0 0 127 0" result="hardAlpha"/>
<feOffset dy="-22"/>
<feGaussianBlur stdDeviation="15"/>
<feComposite in2="hardAlpha" operator="arithmetic" k2="-1" k3="1"/>
<feColorMatrix type="matrix" values="0 0 0 0 1 0 0 0 0 1 0 0 0 0 1 0 0 0 0.3 0"/>
<feBlend mode="normal" in2="shape" result="effect1_innerShadow"/>
</filter>
<filter id="filter1_i" x="0.501953" y="-195.24" width="1446.4" height="802.884" filterUnits="userSpaceOnUse" color-interpolation-filters="sRGB">
<feFlood flood-opacity="0" result="BackgroundImageFix"/>
<feBlend mode="normal" in="SourceGraphic" in2="BackgroundImageFix" result="shape"/>
<feColorMatrix in="SourceAlpha" type="matrix" values="0 0 0 0 0 0 0 0 0 0 0 0 0 0 0 0 0 0 127 0" result="hardAlpha"/>
<feOffset dy="-20"/>
<feGaussianBlur stdDeviation="16.5"/>
<feComposite in2="hardAlpha" operator="arithmetic" k2="-1" k3="1"/>
<feColorMatrix type="matrix" values="0 0 0 0 1 0 0 0 0 1 0 0 0 0 1 0 0 0 0.2 0"/>
<feBlend mode="normal" in2="shape" result="effect1_innerShadow"/>
</filter>
<filter id="filter2_i" x="625.4" y="-219.904" width="841.237" height="483.225" filterUnits="userSpaceOnUse" color-interpolation-filters="sRGB">
<feFlood flood-opacity="0" result="BackgroundImageFix"/>
<feBlend mode="normal" in="SourceGraphic" in2="BackgroundImageFix" result="shape"/>
<feColorMatrix in="SourceAlpha" type="matrix" values="0 0 0 0 0 0 0 0 0 0 0 0 0 0 0 0 0 0 127 0" result="hardAlpha"/>
<feOffset dy="5"/>
<feGaussianBlur stdDeviation="15"/>
<feComposite in2="hardAlpha" operator="arithmetic" k2="-1" k3="1"/>
<feColorMatrix type="matrix" values="0 0 0 0 1 0 0 0 0 1 0 0 0 0 1 0 0 0 0.3 0"/>
<feBlend mode="normal" in2="shape" result="effect1_innerShadow"/>
</filter>
<linearGradient id="paint0_linear" x1="859.859" y1="686.524" x2="1071.51" y2="10.0105" gradientUnits="userSpaceOnUse">
<stop offset="0.151079" stop-color="#3DADFF"/>
</linearGradient>
<linearGradient id="paint1_linear" x1="724.368" y1="696.015" x2="1219.13" y2="-109.786" gradientUnits="userSpaceOnUse">
<stop offset="0.261187" stop-color="#3DADFF"/>
<stop offset="0.629871" stop-color="#9867F4"/>
<stop offset="0.995809" stop-color="#9867F4"/>
</linearGradient>
<linearGradient id="paint2_linear" x1="1293.57" y1="398.624" x2="127.603" y2="57.6733" gradientUnits="userSpaceOnUse">
<stop stop-color="white" stop-opacity="0"/>
<stop offset="0.451042" stop-color="white" stop-opacity="0.01"/>
<stop offset="1" stop-color="white" stop-opacity="0"/>
</linearGradient>
<linearGradient id="paint3_linear" x1="1203.42" y1="-200.012" x2="850.165" y2="483.188" gradientUnits="userSpaceOnUse">
<stop offset="0.432271" stop-color="#9867F4"/>
<stop offset="0.859588" stop-color="#3DADFF"/>
</linearGradient>
<linearGradient id="paint4_linear" x1="1347.58" y1="114.278" x2="618.165" y2="20.844" gradientUnits="userSpaceOnUse">
<stop stop-color="white" stop-opacity="0"/>
<stop offset="0.523958" stop-color="white" stop-opacity="0.14"/>
<stop offset="1" stop-color="white" stop-opacity="0"/>
</linearGradient>
</defs>
</svg>
